<svg xmlns="http://www.w3.org/2000/svg" viewBox="0 0 128 128">
  <!-- Left Bracket { -->
  <path d="M 35 20 L 45 20 L 45 28 L 37 28 L 37 54 C 37 58 35 60 31 60 L 28 60 L 28 68 L 31 68 C 35 68 37 70 37 74 L 37 100 L 45 100 L 45 108 L 35 108 C 28 108 24 104 24 97 L 24 74 C 24 70 22 68 18 68 L 15 68 L 15 60 L 18 60 C 22 60 24 58 24 54 L 24 31 C 24 24 28 20 35 20 Z" fill="#ccff00"/>

  <!-- Letter K -->
  <path d="M 55 38 L 65 38 L 65 59 L 76 45 L 88 45 L 75 62 L 89 86 L 77 86 L 65 66 L 65 86 L 55 86 L 55 38 Z" fill="#ccff00"/>

  <!-- Right Bracket } -->
  <path d="M 93 20 L 103 20 C 110 20 114 24 114 31 L 114 54 C 114 58 116 60 120 60 L 123 60 L 123 68 L 120 68 C 116 68 114 70 114 74 L 114 97 C 114 104 110 108 103 108 L 93 108 L 93 100 L 101 100 L 101 74 C 101 70 103 68 107 68 L 110 68 L 110 60 L 107 60 C 103 60 101 58 101 54 L 101 28 L 93 28 L 93 20 Z" fill="#ccff00"/>

  <!-- Dark background (invisible in light mode, visible in dark) -->
  <rect width="128" height="128" fill="#0d0d0d" style="display: none;"/>

  <style>
    @media (prefers-color-scheme: dark) {
      rect { display: block; }
    }
    @media (prefers-color-scheme: light) {
      path { fill: #000; }
    }
  </style>
</svg>
